<?xml version="1.0" encoding="UTF-8"?>
<svg id="Capa_2" data-name="Capa 2" xmlns="http://www.w3.org/2000/svg" viewBox="0 0 31.98 47.89">
  <defs>
    <style>
      .cls-1 {
        fill: #323232;
      }
    </style>
  </defs>
  <g id="contenido">
    <path class="cls-1" d="m23.18,0l-1.41,2.82c-.34.68-1.03,1.11-1.79,1.11h-7.99c-.76,0-1.45-.43-1.79-1.11l-1.41-2.82C3.85.59,0,4.82,0,9.92v27.98c0,5.51,4.48,9.99,9.99,9.99h11.99c5.51,0,9.99-4.48,9.99-9.99V9.92c0-5.1-3.85-9.33-8.79-9.92Zm-5.2,41.9h-4c-1.1,0-2-.9-2-2s.9-2,2-2h4c1.1,0,2,.9,2,2s-.9,2-2,2Z"/>
  </g>
</svg>