<?xml version="1.0" encoding="UTF-8"?>
<svg id="Capa_2" data-name="Capa 2" xmlns="http://www.w3.org/2000/svg" viewBox="0 0 31.98 31.98">
  <defs>
    <style>
      .cls-1 {
        fill: #323232;
      }
    </style>
  </defs>
  <g id="contenido">
    <g>
      <path class="cls-1" d="m21.35,8.43h-10.73c-1.5,0-2.72,1.22-2.72,2.72v9.67c0,1.5,1.22,2.72,2.72,2.72h10.73c1.5,0,2.72-1.22,2.72-2.72v-9.67c0-1.5-1.22-2.72-2.72-2.72Zm-5.37,12.24c-2.59,0-4.69-2.1-4.69-4.69s2.1-4.69,4.69-4.69,4.69,2.1,4.69,4.69-2.1,4.69-4.69,4.69Zm5.07-8.65c-.73,0-1.31-.59-1.31-1.31s.59-1.31,1.31-1.31,1.31.59,1.31,1.31-.59,1.31-1.31,1.31Z"/>
      <path class="cls-1" d="m15.99,13.05c-1.62,0-2.94,1.32-2.94,2.94s1.32,2.94,2.94,2.94,2.94-1.32,2.94-2.94-1.32-2.94-2.94-2.94Z"/>
      <path class="cls-1" d="m26.55,0H5.43C2.43,0,0,2.43,0,5.43v21.12c0,3,2.43,5.43,5.43,5.43h21.12c3,0,5.43-2.43,5.43-5.43V5.43c0-3-2.43-5.43-5.43-5.43Zm-.51,20.82c0,2.59-2.1,4.69-4.69,4.69h-10.73c-2.59,0-4.69-2.1-4.69-4.69v-9.67c0-2.59,2.1-4.69,4.69-4.69h10.73c2.59,0,4.69,2.1,4.69,4.69v9.67Z"/>
    </g>
  </g>
</svg>