<?xml version="1.0" encoding="UTF-8"?>
<svg id="Capa_2" data-name="Capa 2" xmlns="http://www.w3.org/2000/svg" viewBox="0 0 163.66 27.9">
  <defs>
    <style>
      .cls-1 {
        fill: #c92327;
      }

      .cls-2 {
        fill: #323032;
        fill-rule: evenodd;
      }
    </style>
  </defs>
  <g id="contenido">
    <g>
      <path class="cls-1" d="m7.69,8.02H1.82c-.49,0-.91-.18-1.27-.55s-.55-.79-.55-1.28v-3.78h22.43v5.6h-11.6l3.96,2.32v17.12h-5.19c-.52,0-.96-.19-1.34-.57-.38-.38-.57-.83-.57-1.34V8.02Zm19.97,3.46c1.62-1.62,3.13-2.69,4.52-3.19,1.39-.51,2.96-.76,4.7-.76v6.2c-.61-.06-1.12-.09-1.51-.09-1.47,0-2.62.39-3.46,1.17-.84.78-1.26,2-1.26,3.65v7.26c0,.49-.16.9-.48,1.24-.32.34-.73.51-1.22.51h-5.14V9.51c0-.46.16-.84.48-1.15.32-.31.7-.46,1.12-.46h4.91l-2.66,3.58Zm20.01-3.78c6.61,0,9.92,2.99,9.92,8.97v10.79h-4.73c-.45,0-.83-.16-1.14-.48-.3-.32-.45-.71-.45-1.16v-.87c-1,1.88-2.91,2.82-5.73,2.82-2.27,0-4.05-.56-5.32-1.69-1.27-1.12-1.91-2.57-1.91-4.33,0-1.85.71-3.28,2.12-4.28,1.41-1,3.57-1.5,6.48-1.5h7.64c0-.12-.65-.3-1.96-.52-1.3-.23-1.97-.39-2-.48-.45-1.4-1.76-2.1-3.91-2.1-1.12,0-2.24.21-3.37.64-.58.24-1.15.26-1.71.05-.56-.21-.98-.59-1.25-1.14l-1.23-2.46c1.09-.73,2.4-1.29,3.94-1.69,1.53-.39,3.07-.59,4.62-.59Zm-.23,15.76c1.7,0,2.81-.74,3.32-2.23v-1.69h-2.91c-1.97,0-2.96.65-2.96,1.96,0,.58.22,1.05.66,1.41.44.36,1.07.55,1.89.55Zm22.58,4.32c-3.26,0-5.92-.94-7.98-2.81-2.07-1.87-3.1-4.27-3.1-7.2s1.03-5.28,3.1-7.15c2.07-1.87,4.73-2.81,7.98-2.81,2.17,0,4.05.47,5.63,1.4,1.58.94,2.71,2.25,3.37,3.94l-3.53,1.77c-.42.24-.88.32-1.36.25-.48-.07-.89-.29-1.22-.66-.78-.88-1.76-1.31-2.94-1.31-1.24,0-2.25.41-3.03,1.22-.78.82-1.18,1.93-1.18,3.35s.39,2.58,1.18,3.4c.78.82,1.79,1.22,3.03,1.22,1.66,0,2.94-.86,3.84-2.58l3.84,1.95c.39.21.66.53.79.95.14.42.08.82-.16,1.18-.81,1.24-1.94,2.2-3.37,2.88-1.43.68-3.07,1.02-4.91,1.02Zm25.54-4.34l1.15,3.16c-1.21.8-2.87,1.2-4.97,1.2-2.65,0-4.69-.65-6.12-1.96-1.43-1.31-2.15-3.26-2.15-5.84v-6.85h-2.96v-5.36h7.79l-4.83-2.01v-3.3h5.26c.35,0,.67.09.96.26.29.18.51.41.67.69.16.29.24.61.24.96v3.4h4.69v5.36h-4.69v6.75c0,.77.2,1.35.6,1.75.4.4.92.6,1.55.6.22,0,.43-.02.62-.05.51-.06.96.02,1.36.24.4.22.68.56.84,1.01Zm13.48,4.34c-3.18,0-5.81-.95-7.87-2.85-2.06-1.9-3.09-4.3-3.09-7.22s1.03-5.31,3.09-7.2c2.06-1.88,4.69-2.82,7.87-2.82s5.8.94,7.85,2.82c2.05,1.88,3.07,4.28,3.07,7.2s-1.02,5.36-3.07,7.24c-2.05,1.88-4.66,2.82-7.85,2.82Zm0-5.42c1.18,0,2.15-.41,2.91-1.23.76-.82,1.14-1.96,1.14-3.42s-.38-2.55-1.14-3.37c-.76-.82-1.73-1.23-2.91-1.23s-2.16.41-2.93,1.23c-.77.82-1.16,1.94-1.16,3.37s.39,2.56,1.16,3.39c.77.84,1.75,1.25,2.93,1.25Z"/>
      <g>
        <path class="cls-2" d="m154.12,16.5c-3.15,0-5.7,2.55-5.7,5.7s2.55,5.7,5.7,5.7,5.7-2.55,5.7-5.7-2.55-5.7-5.7-5.7Zm0,8.61c-1.61,0-2.92-1.31-2.92-2.92s1.31-2.92,2.92-2.92,2.92,1.31,2.92,2.92-1.31,2.92-2.92,2.92Z"/>
        <path class="cls-2" d="m154.12,19.91c-1.26,0-2.29,1.02-2.29,2.29s1.02,2.29,2.29,2.29,2.29-1.02,2.29-2.29-1.02-2.29-2.29-2.29Z"/>
        <path class="cls-2" d="m134.04,14.03c-3.82,0-6.91,3.09-6.91,6.91s3.09,6.91,6.91,6.91,6.91-3.09,6.91-6.91-3.09-6.91-6.91-6.91Zm0,10.45c-1.95,0-3.54-1.59-3.54-3.54s1.59-3.54,3.54-3.54,3.54,1.59,3.54,3.54-1.59,3.54-3.54,3.54Z"/>
        <path class="cls-2" d="m134.04,18.16c-1.53,0-2.77,1.24-2.77,2.77s1.24,2.77,2.77,2.77,2.77-1.24,2.77-2.77-1.24-2.77-2.77-2.77Z"/>
        <path class="cls-2" d="m159.22,15.46c.27-2.35.47-2.22-1.61-3.11-.74-.32-1.18-.44-1.98-.65l-2.14-.45c-.1-.02-.1-.23-.1-.36l-.07-1.98-.04-1.06-.14-3.03-.02-.4-.05-2.5c0-.14-.11-.34.32-.75l.37-.44V.13c.05-.54-1.28.8-1.28,1.19l.09,3.51.11,4.09.06,2.15c-.85-.21-3.8-.53-4.81-.73-1.13-1.02-1.66-1.34-2.03-1.32-.69.06-.96.93-1.39,1.59-.4-1.26-.79-.87-1.01-1.1-.08-.08-.08-.2-.06-.32.09-.09.18-.18.26-.27.03-.03.05-.05.08-.08.11-.11.19-.25.22-.41.03-.18,0-.24-.03-.31-.06-.08-.15-.15-.29-.15-.2,0-.36.06-.49.11-.23.11-.29.14-.45.27-.18.14-.42.37-.57.56-.02.02-.03.04-.05.06-.48.11-1.06.19-1.62.19-.03,0-.14-.1-.27-.25-.1-.11-.22-.25-.31-.39-.16-.24-.32-.62-.53-.75-.33-.19-.33-.34-.27-.46h.69c-.05-.49.16-.59.1-.71-.1-.18-.32-.24-.1-.46.64-.07.69.15.64-.43-1.23.21-.32-.24-1.23-.47-.8-.04-1.44.6-.91,1.6.05.07,0,.1,0,.21-.62.28-1.07,1.01-1.07,1.85,0,.32.07.65.21.98l-.69.08-.2-1.06-.77-4.09-.26-1.4c1.39-.22,5.09-.63,6.74-.77.48-.05,3.48-.43,3.86-.46-.06-.5.32-.41-1.39-.64-2.94-.42-4.97,0-8.5,0l-3.91.05c-2.72.05-2.19-.22-2.19,1.46,1.69,0,1.8.26,2.03,1.75.05.35.12.77.21,1.27.13.61.36,1.8.55,2.82.14.73.26,1.38.3,1.67-1.01,0-1.44-.25-2.08.22-1.06.76-.86.92-2.24.92,0,.46-.16.41.47.39v.28c-.27,0-.42-.02-.37.11,0,.06-.05-.05-.16.1-.05.06,0,.17.06.2.1.08.21-.03.26-.06.16-.1.49-.18.65-.1.05.03.1.22.15.29.05.08.22.04.27.08v.19c-.69.22-1.5.52-2.14.93-.32.24-.7.53-1.02.87-1.23.29-1.06-.22-1.06,1.12-.27.86-.59.51-.49,1.59,0,.07.22.04.22.18s-.05.32-.05.54q.42.19.96.25c1.23-5.44,8.87-7.52,13.05-3.03.64.71.96,1.29,1.38,2.14.34.72.58,1.66.71,2.58.02.12.03.25.04.37h6.1c.03-.12.06-.25.1-.37,1.47-5.07,8.43-6.28,11.51-1.65.45.65.56,1.07.8,1.65.05.12.1.24.16.37h2.47c-.02-.12-.05-.24-.08-.37-.21-.96-.45-1.99.02-2.87.38-.74.32-.19.75-.81-1.23-.66-2.67-1.08-4.44-1.22Zm-16.38-4.75c-.1-.01-.64-.22-.69-.04-.16.39-.37.47-.54.11,0,0-.05-.16-.1-.17-.1-.04-.43-.02-.59-.02-.48.02-.32.02-.43-.57l1.23-.19c-.01.21.2.28.7.03.17.53.37.48.59.65.1.06.05.25-.16.2Z"/>
      </g>
    </g>
  </g>
</svg>