<svg width="228" height="217" viewBox="0 0 228 217" fill="none" xmlns="http://www.w3.org/2000/svg">
<path d="M226.02 168.5C223.44 160.31 218.47 153.91 211.34 149.15C208.72 147.4 205.87 146.13 202.92 145.04C202.29 144.81 202.1 144.45 202.09 143.78C202.04 141.12 201.74 138.5 201.24 135.88C200.23 130.62 198.72 125.52 196.44 120.67C191.09 109.26 183.05 100.23 172.33 93.59C164.58 88.8 156.16 85.84 147.12 84.8C139.57 83.93 132.05 84.37 124.65 86.27C115.34 88.66 106.99 92.91 99.65 99.11C93.28 104.49 88.18 110.9 84.41 118.34C84.01 119.13 83.6 119.23 82.8 118.95C76.88 116.89 70.78 116.42 64.62 117.25C58.67 118.06 53.14 120.11 48.07 123.37C40.65 128.14 35.41 134.69 32.17 142.87C31.97 143.38 31.68 143.54 31.21 143.63C25.75 144.58 20.7 146.56 16.2 149.8C7.8 155.85 2.59 163.93 0.909999 174.21C0.569999 176.27 0.119999 178.32 0.249999 180.42C0.429999 183.25 0.889999 186.06 1.6 188.8C3.52 196.19 7.38 202.45 13.2 207.41C20 213.2 27.87 216.36 36.86 216.37C62.57 216.4 88.27 216.38 113.98 216.38C139.69 216.38 165.57 216.37 191.37 216.39C196.32 216.39 201.08 215.43 205.52 213.39C218.59 207.39 225.97 197.11 227.73 182.86C228.34 177.96 227.48 173.17 226.01 168.5H226.02ZM207.97 203.91C202.94 207.56 197.19 209.13 190.99 209.13C165.43 209.12 139.87 209.13 114.31 209.13C89.05 209.13 63.79 209.11 38.52 209.13C34.12 209.13 29.82 208.67 25.75 206.88C18.02 203.5 12.55 197.92 9.52 190.02C8.03 186.14 7.46 182.12 7.74 177.99C8.61 165.22 16.94 155.5 27.9 151.83C30.6 150.93 33.37 150.34 36.25 150.49C36.92 150.52 37.2 150.23 37.4 149.64C38.29 146.99 39.12 144.31 40.48 141.84C44.46 134.61 50.24 129.47 57.94 126.42C63.57 124.2 69.39 123.85 75.28 124.56C78.35 124.93 81.33 125.89 84.14 127.27C85.08 127.73 86.04 128.13 86.96 128.62C87.47 128.89 87.64 128.64 87.81 128.24C88.62 126.39 89.38 124.5 90.27 122.69C96.13 110.83 105.07 102.11 117.11 96.58C125.8 92.59 134.93 91.3 144.42 92.01C158.93 93.11 170.94 99.3 180.72 109.91C187.05 116.78 191.15 124.89 193.41 133.94C194.68 139.02 194.97 144.19 194.81 149.39C194.79 150.16 194.93 150.53 195.81 150.71C201.51 151.87 206.75 154.08 211.08 158.08C216.42 163.01 219.63 169.06 220.37 176.31C221.55 187.87 217.36 197.11 207.97 203.92V203.91ZM15.15 55.03C15.18 77.19 33.19 95.55 55.9 95.28C79.17 95 96.05 75.59 95.68 54.83C95.76 32.73 77.44 14.47 55.31 14.7C32.11 14.93 15.13 33.58 15.16 55.04L15.15 55.03ZM88.36 55.06C88.95 71.66 75.04 88.01 55.54 88.02C36.45 88.03 22.45 72.6 22.41 55.06C22.37 36.47 37.81 21.94 55.4 21.94C73.92 21.94 88.96 37.46 88.36 55.06ZM0.209999 58.17C0.209999 56.11 0.209999 54.05 0.209999 52C0.209999 51.58 0.359999 51.4 0.779999 51.4C4.12 51.4 7.46 51.41 10.81 51.41C11.22 51.41 11.4 51.62 11.4 52.02C11.4 54.02 11.4 56.02 11.4 58.01C11.4 58.54 11.14 58.73 10.61 58.72C8.94 58.7 7.27 58.72 5.6 58.72C5.6 58.72 5.6 58.72 5.6 58.71C3.99 58.71 2.38 58.68 0.769999 58.73C0.289999 58.74 0.229999 58.57 0.229999 58.18L0.209999 58.17ZM99.42 52.06C99.42 51.53 99.64 51.39 100.11 51.39C103.33 51.4 106.55 51.41 109.77 51.41C110.32 51.41 110.56 51.57 110.55 52.19C110.51 54.07 110.51 55.94 110.54 57.82C110.54 58.51 110.31 58.75 109.6 58.73C108.02 58.68 106.44 58.71 104.86 58.71V58.68C103.28 58.68 101.7 58.65 100.12 58.7C99.58 58.72 99.44 58.54 99.44 58.05C99.44 56.05 99.45 54.06 99.42 52.06ZM51.71 109.28C51.76 107.7 51.73 106.12 51.73 104.55H51.7C51.7 103 51.72 101.45 51.69 99.91C51.67 99.26 51.86 99.04 52.55 99.06C54.45 99.12 56.36 99.12 58.27 99.08C58.88 99.07 59.03 99.28 59.02 99.84C59 103 58.99 106.15 59.02 109.31C59.02 109.84 58.88 110.04 58.32 110.02C56.38 109.98 54.45 109.99 52.51 110.01C51.96 110.01 51.71 109.91 51.73 109.28H51.71ZM51.73 10.38C51.75 7.11 51.76 3.83 51.76 0.56C51.76 0.14 51.91 0 52.33 0C54.36 0.02 56.38 0.02 58.41 0C58.92 0 58.99 0.21 58.99 0.64C58.97 2.25 58.99 3.86 58.99 5.46H59C59 7.04 58.98 8.62 59.01 10.19C59.01 10.72 58.87 10.93 58.31 10.92C56.31 10.91 54.32 10.92 52.32 10.95C51.9 10.95 51.73 10.79 51.73 10.37V10.38ZM96.41 90.9C96.53 91.02 96.62 91.18 96.69 91.27C96.73 91.55 96.58 91.66 96.45 91.78C95.02 93.18 93.58 94.56 92.18 95.99C91.79 96.39 91.59 96.29 91.25 95.96C89.02 93.76 86.79 91.56 84.64 89.28C84.25 88.87 84.16 88.66 84.61 88.23C86.02 86.86 87.39 85.45 88.77 84.04C89.03 83.77 89.21 83.73 89.5 84.02C91.8 86.32 94.11 88.61 96.41 90.91V90.9ZM84.59 21.76C84.16 21.35 84.16 21.14 84.6 20.71C86.84 18.53 89.03 16.3 91.24 14.09C91.51 13.82 91.71 13.56 92.1 13.96C93.59 15.45 95.11 16.93 96.62 18.41C96.7 18.49 96.76 18.58 96.92 18.78C96.75 18.89 96.58 18.97 96.46 19.1C94.18 21.37 91.89 23.63 89.64 25.92C89.24 26.33 89.07 26.28 88.7 25.88C87.37 24.48 85.99 23.12 84.6 21.77L84.59 21.76ZM26.02 87.91C26.64 88.51 26.67 88.94 26.02 89.57C23.88 91.64 21.79 93.76 19.69 95.88C19.32 96.25 19.05 96.3 18.66 95.9C17.26 94.48 15.83 93.09 14.4 91.69C14.09 91.39 14.15 91.19 14.45 90.89C16.74 88.63 19.01 86.35 21.28 84.08C21.41 83.95 21.52 83.81 21.71 83.8C21.94 83.82 22.07 84 22.21 84.14C23.48 85.4 24.72 86.69 26.01 87.92L26.02 87.91ZM14.37 19.02C14.05 18.71 14.2 18.54 14.44 18.3C15.86 16.9 17.28 15.5 18.68 14.07C18.97 13.77 19.2 13.71 19.5 14.01C21.8 16.3 24.11 18.59 26.41 20.88C26.51 20.98 26.57 21.12 26.62 21.21C26.65 21.5 26.48 21.64 26.34 21.79C24.98 23.25 23.57 24.66 22.11 26.03C21.83 26.29 21.66 26.3 21.39 26.03C19.06 23.68 16.72 21.35 14.37 19.02ZM183.34 137.25C183.64 138.93 183.85 140.6 183.88 142.31C183.88 142.93 183.68 143.16 183.05 143.12C182.1 143.07 181.14 143.11 180.19 143.11C179.18 143.1 178.16 143.08 177.15 143.11C176.68 143.11 176.53 142.94 176.53 142.48C176.39 134.14 173.16 127.17 167.13 121.46C162.51 117.08 156.93 114.74 150.71 113.8C149.77 113.66 148.8 113.7 147.85 113.71C147.32 113.71 147.11 113.6 147.12 113.02C147.15 111.05 147.16 109.08 147.12 107.11C147.11 106.47 147.38 106.39 147.91 106.39C152.64 106.37 157.14 107.52 161.44 109.35C169.53 112.8 175.58 118.52 179.71 126.26C181.55 129.7 182.64 133.4 183.34 137.24V137.25Z" fill="#323232"/>
</svg>
