<?xml version="1.0" encoding="UTF-8"?>
<svg id="Capa_2" data-name="Capa 2" xmlns="http://www.w3.org/2000/svg" viewBox="0 0 31.98 29.31">
  <defs>
    <style>
      .cls-1 {
        fill: #323232;
      }
    </style>
  </defs>
  <g id="contenido">
    <g>
      <path class="cls-1" d="m31.91,6.05l-11.22,11.22c-2.6,2.6-6.82,2.6-9.42,0L.06,6.05c-.02.21-.06.4-.06.61v15.99c0,3.68,2.98,6.66,6.66,6.66h18.65c3.68,0,6.66-2.98,6.66-6.66V6.66c0-.21-.04-.4-.06-.61Z"/>
      <path class="cls-1" d="m18.82,15.38L30.98,3.21C29.79,1.22,27.64,0,25.31,0H6.66C4.34,0,2.19,1.22.99,3.21l12.17,12.17c1.56,1.56,4.09,1.56,5.65,0Z"/>
    </g>
  </g>
</svg>